<svg width="34" height="43" viewBox="0 0 34 43" fill="none" xmlns="http://www.w3.org/2000/svg">
<path d="M11.9848 8.40149L22.2603 8.40149" stroke="#989898" stroke-width="2.5" stroke-linecap="round" stroke-linejoin="round"/>
<path d="M6.86002 17.1287L11.9851 8.40149" stroke="#989898" stroke-width="2.5" stroke-linecap="round" stroke-linejoin="round"/>
<path d="M11.8842 25.6827L6.86005 17.1288" stroke="#989898" stroke-width="2.5" stroke-linecap="round" stroke-linejoin="round"/>
<path d="M21.9702 25.8685L12.2628 25.8685" stroke="#989898" stroke-width="2.5" stroke-linecap="round" stroke-linejoin="round"/>
<path d="M27.3857 17.1288L22.3616 25.6827" stroke="#989898" stroke-width="2.5" stroke-linecap="round" stroke-linejoin="round"/>
<path d="M22.2607 8.40149L27.3857 17.1287" stroke="#989898" stroke-width="2.5" stroke-linecap="round" stroke-linejoin="round"/>
<path d="M10.0285 32.6247L12.2628 25.8685" stroke="#989898" stroke-width="2.5" stroke-linecap="round" stroke-linejoin="round"/>
<path d="M17.1228 41.0543L11.4423 37.0006" stroke="#989898" stroke-width="2.5" stroke-linecap="round" stroke-linejoin="round"/>
<path d="M25.2648 35.2399L17.1227 41.0544" stroke="#989898" stroke-width="2.5" stroke-linecap="round" stroke-linejoin="round"/>
<path d="M22.3615 25.6826L25.3911 34.8434" stroke="#989898" stroke-width="2.5" stroke-linecap="round" stroke-linejoin="round"/>
<path d="M26.0142 2L22.2271 8.44621" stroke="#989898" stroke-width="2.5" stroke-linecap="round" stroke-linejoin="round"/>
<path d="M7.8484 2L11.749 8.64456" stroke="#989898" stroke-width="2.5" stroke-linecap="round" stroke-linejoin="round"/>
<path d="M31.8036 37.3353L25.2647 35.2397" stroke="#989898" stroke-width="2.5" stroke-linecap="round" stroke-linejoin="round"/>
<path d="M2.00004 37.4712L5.9259 36.2196" stroke="#989898" stroke-width="2.5" stroke-linecap="round" stroke-linejoin="round"/>
<path d="M7.93298 17.2814L12.6342 9.28931H21.5623L26.2636 17.2814L21.5711 24.7893H12.6254L7.93298 17.2814Z" fill="#E2E7EA" stroke="black"/>
</svg>
